<mxfile modified="2021-07-16T06:57:54.919Z" host="app.diagrams.net" agent="5.0 (Windows NT 10.0; Win64; x64) AppleWebKit/537.36 (KHTML, like Gecko) Chrome/83.0.4103.61 Safari/537.36" etag="nkuKxZZtbKAv0dyG__17" version="14.8.5" type="github">
  <diagram id="f106602c-feb2-e66a-4537-3a34d633f6aa" name="Page-1">
    <mxGraphModel dx="1234" dy="517" grid="1" gridSize="10" guides="1" tooltips="1" connect="1" arrows="1" fold="1" page="1" pageScale="1" pageWidth="1169" pageHeight="827" background="#ffffff" math="0" shadow="0">
      <root>
        <mxCell id="0" />
        <mxCell id="1" parent="0" />
        <mxCell id="14" value="" style="fillColor=#F6F6F6;strokeColor=none;shadow=0;gradientColor=none;fontSize=14;align=left;spacing=10;fontColor=#717171;9E9E9E;verticalAlign=top;spacingTop=-4;fontStyle=0;spacingLeft=40;html=1;" parent="1" vertex="1">
          <mxGeometry x="220" y="90" width="310" height="570" as="geometry" />
        </mxCell>
        <mxCell id="711" value="销售端" style="rounded=1;absoluteArcSize=1;arcSize=2;html=1;strokeColor=none;gradientColor=none;shadow=0;dashed=0;strokeColor=none;fontSize=12;fontColor=#9E9E9E;align=left;verticalAlign=top;spacing=10;spacingTop=-4;fillColor=#E1F5FE;" parent="1" vertex="1">
          <mxGeometry x="260" y="90" width="310" height="160" as="geometry" />
        </mxCell>
        <mxCell id="2" value="整体流程" style="fillColor=#4DA1F5;strokeColor=none;shadow=1;gradientColor=none;fontSize=14;align=left;spacingLeft=50;fontColor=#ffffff;html=1;" parent="1" vertex="1">
          <mxGeometry x="120" y="40" width="1360" height="50" as="geometry" />
        </mxCell>
        <mxCell id="9H8mp4o10f4AkLjiTtre-744" value="" style="html=1;verticalLabelPosition=bottom;align=center;labelBackgroundColor=#ffffff;verticalAlign=top;strokeWidth=2;strokeColor=#0080F0;shadow=0;dashed=0;shape=mxgraph.ios7.icons.help;" parent="1" vertex="1">
          <mxGeometry x="310" y="590" width="40" height="40" as="geometry" />
        </mxCell>
        <mxCell id="9H8mp4o10f4AkLjiTtre-762" value="" style="html=1;dashed=0;whitespace=wrap;fillColor=#cc9e01;strokeColor=#ffffff;points=[[0.005,0.63,0],[0.1,0.2,0],[0.9,0.2,0],[0.5,0,0],[0.995,0.63,0],[0.72,0.99,0],[0.5,1,0],[0.28,0.99,0]];shape=mxgraph.kubernetes.icon;prIcon=node" parent="1" vertex="1">
          <mxGeometry x="430" y="220" width="50" height="48" as="geometry" />
        </mxCell>
        <mxCell id="nr5fOKlL_KogjnnYkvEE-763" value="" style="fillColor=#F6F6F6;strokeColor=none;shadow=0;gradientColor=none;fontSize=14;align=left;spacing=10;fontColor=#717171;9E9E9E;verticalAlign=top;spacingTop=-4;fontStyle=0;spacingLeft=40;html=1;" parent="1" vertex="1">
          <mxGeometry x="570" y="90" width="600" height="570" as="geometry" />
        </mxCell>
        <mxCell id="nr5fOKlL_KogjnnYkvEE-764" value="" style="fillColor=#F6F6F6;strokeColor=none;shadow=0;gradientColor=none;fontSize=14;align=left;spacing=10;fontColor=#717171;9E9E9E;verticalAlign=top;spacingTop=-4;fontStyle=0;spacingLeft=40;html=1;" parent="1" vertex="1">
          <mxGeometry x="1170" y="90" width="510" height="580" as="geometry" />
        </mxCell>
        <mxCell id="nr5fOKlL_KogjnnYkvEE-765" value="" style="fillColor=#F6F6F6;strokeColor=none;shadow=0;gradientColor=none;fontSize=14;align=left;spacing=10;fontColor=#717171;9E9E9E;verticalAlign=top;spacingTop=-4;fontStyle=0;spacingLeft=40;html=1;" parent="1" vertex="1">
          <mxGeometry x="710" y="530" width="460" height="130" as="geometry" />
        </mxCell>
        <mxCell id="nr5fOKlL_KogjnnYkvEE-766" value="任务切分、状态维护" style="points=[[0,0,0],[0.25,0,0],[0.5,0,0],[0.75,0,0],[1,0,0],[1,0.25,0],[1,0.5,0],[1,0.75,0],[1,1,0],[0.75,1,0],[0.5,1,0],[0.25,1,0],[0,1,0],[0,0.75,0],[0,0.5,0],[0,0.25,0]];rounded=1;absoluteArcSize=1;arcSize=2;html=1;strokeColor=none;gradientColor=none;shadow=0;dashed=0;fontSize=12;fontColor=#9E9E9E;align=left;verticalAlign=top;spacing=10;spacingTop=-4;fillColor=#F3E5F5;" parent="1" vertex="1">
          <mxGeometry x="634" y="115" width="470" height="210" as="geometry" />
        </mxCell>
        <mxCell id="nr5fOKlL_KogjnnYkvEE-775" style="edgeStyle=orthogonalEdgeStyle;rounded=0;orthogonalLoop=1;jettySize=auto;html=1;fontColor=#6666FF;strokeWidth=3;" parent="1" source="nr5fOKlL_KogjnnYkvEE-767" target="nr5fOKlL_KogjnnYkvEE-771" edge="1">
          <mxGeometry relative="1" as="geometry" />
        </mxCell>
        <mxCell id="nr5fOKlL_KogjnnYkvEE-767" value="" style="html=1;dashed=0;whitespace=wrap;fillColor=#95cc01;strokeColor=#ffffff;points=[[0.005,0.63,0],[0.1,0.2,0],[0.9,0.2,0],[0.5,0,0],[0.995,0.63,0],[0.72,0.99,0],[0.5,1,0],[0.28,0.99,0]];shape=mxgraph.kubernetes.icon;prIcon=node" parent="1" vertex="1">
          <mxGeometry x="660" y="146" width="50" height="48" as="geometry" />
        </mxCell>
        <mxCell id="nr5fOKlL_KogjnnYkvEE-771" value="" style="strokeColor=#dddddd;shadow=1;strokeWidth=1;rounded=1;absoluteArcSize=1;arcSize=2;fontColor=#6666FF;" parent="1" vertex="1">
          <mxGeometry x="710" y="240" width="150" height="60" as="geometry" />
        </mxCell>
        <mxCell id="nr5fOKlL_KogjnnYkvEE-772" value="&lt;font color=&quot;#000000&quot;&gt;任务切分&lt;/font&gt;" style="dashed=0;connectable=0;html=1;fillColor=#5184F3;strokeColor=none;shape=mxgraph.gcp2.hexIcon;prIcon=cloud_dataflow;part=1;labelPosition=right;verticalLabelPosition=middle;align=left;verticalAlign=middle;spacingLeft=5;fontColor=#999999;fontSize=12;" parent="nr5fOKlL_KogjnnYkvEE-771" vertex="1">
          <mxGeometry y="0.5" width="44" height="39" relative="1" as="geometry">
            <mxPoint x="5" y="-19.5" as="offset" />
          </mxGeometry>
        </mxCell>
        <mxCell id="nr5fOKlL_KogjnnYkvEE-780" value="worker" style="rounded=1;absoluteArcSize=1;arcSize=2;html=1;strokeColor=#6c8ebf;shadow=0;dashed=0;strokeColor=none;fontSize=12;align=left;verticalAlign=top;spacing=10;spacingTop=-4;fillColor=#dae8fc;" parent="1" vertex="1">
          <mxGeometry x="630" y="360" width="530" height="290" as="geometry" />
        </mxCell>
        <mxCell id="nr5fOKlL_KogjnnYkvEE-789" value="下游" style="rounded=1;absoluteArcSize=1;arcSize=2;html=1;strokeColor=#6c8ebf;shadow=0;dashed=0;strokeColor=none;fontSize=12;align=left;verticalAlign=top;spacing=10;spacingTop=-4;fillColor=#dae8fc;" parent="1" vertex="1">
          <mxGeometry x="1180" y="390" width="310" height="215" as="geometry" />
        </mxCell>
        <mxCell id="nr5fOKlL_KogjnnYkvEE-790" value="Kafka" style="points=[[0,0,0],[0.25,0,0],[0.5,0,0],[0.75,0,0],[1,0,0],[0,1,0],[0.25,1,0],[0.5,1,0],[0.75,1,0],[1,1,0],[0,0.25,0],[0,0.5,0],[0,0.75,0],[1,0.25,0],[1,0.5,0],[1,0.75,0]];outlineConnect=0;fontColor=#232F3E;gradientColor=#945DF2;gradientDirection=north;fillColor=#5A30B5;strokeColor=#ffffff;dashed=0;verticalLabelPosition=bottom;verticalAlign=top;align=center;html=1;fontSize=12;fontStyle=0;aspect=fixed;shape=mxgraph.aws4.resourceIcon;resIcon=mxgraph.aws4.managed_streaming_for_kafka;" parent="1" vertex="1">
          <mxGeometry x="1120" y="181" width="78" height="78" as="geometry" />
        </mxCell>
        <mxCell id="nr5fOKlL_KogjnnYkvEE-791" value="" style="outlineConnect=0;fontColor=#232F3E;gradientColor=none;fillColor=#116D5B;strokeColor=none;dashed=0;verticalLabelPosition=bottom;verticalAlign=top;align=center;html=1;fontSize=12;fontStyle=0;aspect=fixed;pointerEvents=1;shape=mxgraph.aws4.sagemaker_model;" parent="1" vertex="1">
          <mxGeometry x="1286" y="190" width="78" height="78" as="geometry" />
        </mxCell>
        <mxCell id="nr5fOKlL_KogjnnYkvEE-776" style="edgeStyle=orthogonalEdgeStyle;rounded=0;orthogonalLoop=1;jettySize=auto;html=1;fontColor=#6666FF;strokeColor=#000000;strokeWidth=2;" parent="1" source="nr5fOKlL_KogjnnYkvEE-771" edge="1">
          <mxGeometry relative="1" as="geometry">
            <mxPoint x="790" y="440" as="targetPoint" />
          </mxGeometry>
        </mxCell>
        <mxCell id="3AVTxECIZ5KOKoRKUXRH-711" value="" style="strokeColor=#dddddd;shadow=1;strokeWidth=1;rounded=1;absoluteArcSize=1;arcSize=2;fontColor=#6666FF;" vertex="1" parent="1">
          <mxGeometry x="920" y="199" width="150" height="60" as="geometry" />
        </mxCell>
        <mxCell id="3AVTxECIZ5KOKoRKUXRH-712" value="&lt;font color=&quot;#000000&quot;&gt;状态维护&lt;/font&gt;" style="dashed=0;connectable=0;html=1;fillColor=#5184F3;strokeColor=none;shape=mxgraph.gcp2.hexIcon;prIcon=cloud_dataflow;part=1;labelPosition=right;verticalLabelPosition=middle;align=left;verticalAlign=middle;spacingLeft=5;fontColor=#999999;fontSize=12;" vertex="1" parent="3AVTxECIZ5KOKoRKUXRH-711">
          <mxGeometry y="0.5" width="44" height="39" relative="1" as="geometry">
            <mxPoint x="5" y="-19.5" as="offset" />
          </mxGeometry>
        </mxCell>
        <mxCell id="3AVTxECIZ5KOKoRKUXRH-716" style="edgeStyle=orthogonalEdgeStyle;rounded=0;orthogonalLoop=1;jettySize=auto;html=1;entryX=0;entryY=0.5;entryDx=0;entryDy=0;strokeWidth=2;" edge="1" parent="1" source="9H8mp4o10f4AkLjiTtre-723" target="3AVTxECIZ5KOKoRKUXRH-714">
          <mxGeometry relative="1" as="geometry" />
        </mxCell>
        <mxCell id="9H8mp4o10f4AkLjiTtre-723" value="" style="html=1;dashed=0;whitespace=wrap;fillColor=#95cc01;strokeColor=#ffffff;points=[[0.005,0.63,0],[0.1,0.2,0],[0.9,0.2,0],[0.5,0,0],[0.995,0.63,0],[0.72,0.99,0],[0.5,1,0],[0.28,0.99,0]];shape=mxgraph.kubernetes.icon;prIcon=node" parent="1" vertex="1">
          <mxGeometry x="770" y="440" width="50" height="48" as="geometry" />
        </mxCell>
        <mxCell id="3AVTxECIZ5KOKoRKUXRH-713" value="任务：seq, corpId, 10万条" style="text;html=1;resizable=0;autosize=1;align=center;verticalAlign=middle;points=[];fillColor=none;strokeColor=none;rounded=0;" vertex="1" parent="1">
          <mxGeometry x="640" y="394" width="160" height="20" as="geometry" />
        </mxCell>
        <mxCell id="3AVTxECIZ5KOKoRKUXRH-718" style="edgeStyle=orthogonalEdgeStyle;rounded=0;orthogonalLoop=1;jettySize=auto;html=1;strokeWidth=2;" edge="1" parent="1" source="3AVTxECIZ5KOKoRKUXRH-714" target="3AVTxECIZ5KOKoRKUXRH-711">
          <mxGeometry relative="1" as="geometry" />
        </mxCell>
        <mxCell id="3AVTxECIZ5KOKoRKUXRH-714" value="" style="strokeColor=#dddddd;shadow=1;strokeWidth=1;rounded=1;absoluteArcSize=1;arcSize=2;fontColor=#6666FF;" vertex="1" parent="1">
          <mxGeometry x="780" y="520" width="150" height="60" as="geometry" />
        </mxCell>
        <mxCell id="3AVTxECIZ5KOKoRKUXRH-715" value="&lt;font color=&quot;#000000&quot;&gt;拉取任务&lt;/font&gt;" style="dashed=0;connectable=0;html=1;fillColor=#5184F3;strokeColor=none;shape=mxgraph.gcp2.hexIcon;prIcon=cloud_dataflow;part=1;labelPosition=right;verticalLabelPosition=middle;align=left;verticalAlign=middle;spacingLeft=5;fontColor=#999999;fontSize=12;" vertex="1" parent="3AVTxECIZ5KOKoRKUXRH-714">
          <mxGeometry y="0.5" width="44" height="39" relative="1" as="geometry">
            <mxPoint x="5" y="-19.5" as="offset" />
          </mxGeometry>
        </mxCell>
        <mxCell id="3AVTxECIZ5KOKoRKUXRH-717" value="拉取：seq, corpId, 1000条" style="text;html=1;resizable=0;autosize=1;align=center;verticalAlign=middle;points=[];fillColor=none;strokeColor=none;rounded=0;" vertex="1" parent="1">
          <mxGeometry x="620" y="488" width="160" height="20" as="geometry" />
        </mxCell>
        <mxCell id="3AVTxECIZ5KOKoRKUXRH-719" value="成功拉取 1000条" style="text;html=1;resizable=0;autosize=1;align=center;verticalAlign=middle;points=[];fillColor=none;strokeColor=none;rounded=0;" vertex="1" parent="1">
          <mxGeometry x="885" y="394" width="110" height="20" as="geometry" />
        </mxCell>
      </root>
    </mxGraphModel>
  </diagram>
</mxfile>
